<svg width="62" height="80" viewBox="0 0 62 80" fill="none" xmlns="http://www.w3.org/2000/svg">
<path d="M31.5631 1.10168C30.4455 1.51849 29.3447 2.28568 28.7111 3.06969C28.0607 3.90408 27.3935 5.23848 27.2599 6.00568C27.1935 6.33928 27.0935 6.62328 27.0263 6.62328C26.9759 6.62328 26.5095 6.45608 26.0087 6.27288C24.7911 5.78888 22.8063 5.75607 21.4551 6.18967C19.6039 6.79047 17.9023 8.37448 17.2183 10.1265C16.9351 10.8273 16.9183 12.1449 16.8351 27.1241L16.7519 43.3705L14.9671 41.0353C12.4631 37.7657 11.5295 36.9985 9.24392 36.3977C6.87512 35.7809 4.53992 36.4145 2.82152 38.1489C1.01992 39.9337 0.369519 42.6697 1.13672 45.1377C1.62072 46.6889 8.30952 59.0497 11.1287 63.5865C16.3831 72.0601 20.3695 75.7801 26.2079 77.6985C29.4271 78.7497 32.7303 79.1833 37.3503 79.2001C44.9735 79.2169 50.2111 77.3489 54.4311 73.1281C57.1663 70.3921 58.8343 67.4737 60.0687 63.2529C61.1527 59.5329 61.1031 60.4841 61.1527 39.2497C61.2191 18.2657 61.2191 18.1985 60.3015 16.2809C59.7015 14.9969 58.8839 14.1121 57.7495 13.5121C55.9479 12.5449 53.7463 12.3945 51.8775 13.1121C51.0607 13.4121 51.0271 13.4121 51.0271 13.1289C51.0271 12.0449 50.6271 9.32568 50.3431 8.50808C49.3919 5.70568 47.1567 4.12088 44.1879 4.12088C43.1039 4.12088 41.2687 4.53768 40.7183 4.88808C40.5015 5.03848 40.3015 5.12168 40.2847 5.08808C40.2511 5.05448 40.0175 4.63769 39.7679 4.15369C39.1511 3.01929 37.9327 1.88488 36.7151 1.31768C35.4327 0.734482 32.8975 0.617683 31.5631 1.10168ZM35.2655 4.43768C36.0327 4.78809 36.7335 5.48888 37.0503 6.20567C37.2167 6.60567 37.2839 9.74168 37.3503 21.1849L37.4335 35.6801L37.9007 36.0801C38.5343 36.6305 39.5023 36.6305 40.1359 36.0801L40.6031 35.6801L40.6863 22.7697C40.7527 11.3433 40.8031 9.80888 41.0367 9.29208C41.6039 8.09129 42.4879 7.60728 44.1559 7.60728C45.6743 7.60728 46.3079 7.97448 46.9415 9.20888L47.4415 10.2097L47.5247 23.6377C47.5911 34.3801 47.6583 37.1489 47.8247 37.4489C48.4087 38.4833 50.1103 38.3993 50.7943 37.3153C50.8775 37.1649 50.9775 33.1617 51.0279 27.8905L51.1111 18.7161L51.5783 17.7489C52.2287 16.4481 52.9295 16.0809 54.5975 16.1641C56.6159 16.2641 57.3831 17.1817 57.7167 19.8337C57.8335 20.7681 57.8671 27.4897 57.8167 39.5833C57.7503 57.3649 57.7503 57.9649 57.3999 59.7497C56.7663 63.1025 55.6319 65.9713 53.9967 68.4073C53.0959 69.7249 51.0607 71.7601 49.7263 72.6609C45.8567 75.2633 40.4015 76.2801 33.6799 75.6633C27.5415 75.1129 23.5551 73.4449 20.2351 70.0753C17.5327 67.3393 15.2647 64.0537 11.5279 57.4649C8.87592 52.8281 5.58952 46.7729 4.80552 45.0881C3.47112 42.2361 4.77192 39.6505 7.54072 39.6505C8.57512 39.6505 9.37592 39.9337 10.1431 40.5841C10.4431 40.8345 12.1615 42.9865 13.9799 45.3881C15.7983 47.7905 17.4831 49.8417 17.7167 49.9753C18.2671 50.2753 19.2847 50.1089 19.7351 49.6585C20.0855 49.3249 20.0855 49.2249 20.1687 30.5089C20.2519 11.8433 20.2519 11.7097 20.6023 11.0425C21.4199 9.47448 23.5711 8.82407 25.1559 9.65768C25.5727 9.87447 26.1399 10.3249 26.4071 10.6753L26.9239 11.3257L27.0071 23.4193L27.0903 35.5129L27.6407 35.9969C28.4079 36.6809 29.2591 36.6641 29.9423 35.9633L30.4263 35.4633L30.5095 20.9177L30.5927 6.37209L30.9767 5.75448C31.8967 4.28808 33.7311 3.72089 35.2655 4.43768Z" fill="url(#paint0_linear)"/>
    <defs>
    <linearGradient id="paint0_linear" x1="30.9989" y1="79.2002" x2="30.9989" y2="0.79982" gradientUnits="userSpaceOnUse">
    <stop stop-color="#92E9B6"/>
    <stop offset="1" stop-color="#8FE2BA"/>
    </linearGradient>
    </defs>
</svg>
